<svg width="16" height="16" viewBox="0 0 16 16" fill="none" xmlns="http://www.w3.org/2000/svg">
<path fill-rule="evenodd" clip-rule="evenodd" d="M2.48954 8.01786C2.29836 8.01786 2.14338 8.17284 2.14338 8.36401C2.14338 8.55519 2.29836 8.71017 2.48954 8.71017L8.01781 8.71017L8.01781 14.2384C8.01781 14.4296 8.17279 14.5846 8.36396 14.5846C8.55514 14.5846 8.71011 14.4296 8.71011 14.2384L8.71012 8.71017H14.2384C14.4296 8.71017 14.5845 8.55519 14.5845 8.36401C14.5845 8.17284 14.4296 8.01786 14.2384 8.01786H8.71012L8.71011 2.48959C8.71011 2.29841 8.55514 2.14343 8.36396 2.14343C8.17279 2.14343 8.01781 2.29841 8.01781 2.48959L8.01781 8.01786L2.48954 8.01786Z" fill="#DBDBDB"/>
<path d="M2.14338 8.36401L2.64338 8.36401V8.36401L2.14338 8.36401ZM2.48954 8.01786L2.48954 7.51786L2.48954 8.01786ZM2.48954 8.71017L2.48954 9.21017L2.48954 9.21017L2.48954 8.71017ZM8.01781 8.71017H8.51781V8.21017H8.01781V8.71017ZM8.01781 14.2384L8.51781 14.2384L8.51781 14.2384L8.01781 14.2384ZM8.36396 14.5846L8.36396 14.0846L8.36396 14.5846ZM8.71011 14.2384L9.21011 14.2384L9.21012 14.2384L8.71011 14.2384ZM8.71012 8.71017V8.21017H8.21012V8.71017H8.71012ZM8.71012 8.01786H8.21012V8.51786H8.71012V8.01786ZM8.71011 2.48959L9.21012 2.48959L9.21011 2.48959L8.71011 2.48959ZM8.36396 2.14343L8.36396 2.64343L8.36396 2.14343ZM8.01781 2.48959L8.51781 2.48959L8.51781 2.48959L8.01781 2.48959ZM8.01781 8.01786V8.51786L8.51781 8.51786L8.51781 8.01786H8.01781ZM2.64338 8.36401C2.64338 8.44898 2.5745 8.51786 2.48954 8.51786L2.48954 7.51786C2.02222 7.51786 1.64338 7.8967 1.64338 8.36401L2.64338 8.36401ZM2.48954 8.21017C2.5745 8.21017 2.64338 8.27905 2.64338 8.36401L1.64338 8.36401C1.64338 8.83133 2.02222 9.21017 2.48954 9.21017L2.48954 8.21017ZM8.01781 8.21017L2.48954 8.21017L2.48954 9.21017L8.01781 9.21017L8.01781 8.21017ZM8.51781 14.2384L8.51781 8.71017H7.51781L7.51781 14.2384L8.51781 14.2384ZM8.36396 14.0846C8.44893 14.0846 8.51781 14.1535 8.51781 14.2384L7.51781 14.2384C7.51781 14.7058 7.89664 15.0846 8.36396 15.0846L8.36396 14.0846ZM8.21012 14.2384C8.21012 14.1535 8.27899 14.0846 8.36396 14.0846L8.36396 15.0846C8.83128 15.0846 9.21011 14.7058 9.21011 14.2384L8.21012 14.2384ZM8.21012 8.71017L8.21012 14.2384L9.21012 14.2384L9.21012 8.71017H8.21012ZM14.2384 8.21017H8.71012V9.21017H14.2384V8.21017ZM14.0845 8.36401C14.0845 8.27905 14.1534 8.21017 14.2384 8.21017V9.21017C14.7057 9.21017 15.0845 8.83133 15.0845 8.36401H14.0845ZM14.2384 8.51786C14.1534 8.51786 14.0845 8.44898 14.0845 8.36401H15.0845C15.0845 7.8967 14.7057 7.51786 14.2384 7.51786V8.51786ZM8.71012 8.51786H14.2384V7.51786H8.71012V8.51786ZM8.21012 2.48959L8.21012 8.01786H9.21012L9.21012 2.48959L8.21012 2.48959ZM8.36396 2.64343C8.27899 2.64343 8.21012 2.57455 8.21012 2.48959L9.21011 2.48959C9.21011 2.02227 8.83128 1.64343 8.36396 1.64343L8.36396 2.64343ZM8.51781 2.48959C8.51781 2.57455 8.44893 2.64343 8.36396 2.64343L8.36396 1.64343C7.89664 1.64343 7.51781 2.02227 7.51781 2.48959L8.51781 2.48959ZM8.51781 8.01786L8.51781 2.48959L7.51781 2.48959L7.51781 8.01786H8.51781ZM2.48954 8.51786L8.01781 8.51786V7.51786L2.48954 7.51786L2.48954 8.51786Z" fill="#DBDBDB"/>
</svg>
